<svg width="18" height="20" viewBox="0 0 18 20" fill="none" xmlns="http://www.w3.org/2000/svg">
<path fill-rule="evenodd" clip-rule="evenodd" d="M10 0C10.2652 0 10.5196 0.105357 10.7071 0.292893L15.7071 5.29289C15.8946 5.48043 16 5.73478 16 6V7C16 7.55228 15.5523 8 15 8H9C8.48716 8 8.06449 7.61396 8.00673 7.11662L8 7L7.999 2H3C2.44772 2 2 2.44772 2 3V17C2 17.5523 2.44772 18 3 18H5C5.55228 18 6 18.4477 6 19C6 19.5523 5.55228 20 5 20H3C1.34315 20 0 18.6569 0 17V3C0 1.34315 1.34315 0 3 0H10ZM13 10C13.5523 10 14 10.4477 14 11V14H17C17.5523 14 18 14.4477 18 15C18 15.5523 17.5523 16 17 16H14V19C14 19.5523 13.5523 20 13 20C12.4477 20 12 19.5523 12 19V16H9C8.44771 16 8 15.5523 8 15C8 14.4477 8.44771 14 9 14H12V11C12 10.4477 12.4477 10 13 10ZM9.999 2.414L10 6H13.586L9.999 2.414Z" fill="#475569"/>
</svg>
