<svg width="20" height="20" viewBox="0 0 20 20" fill="none" xmlns="http://www.w3.org/2000/svg">
<path fill-rule="evenodd" clip-rule="evenodd" d="M16 0C16.585 0 17.0451 0.500026 16.9965 1.08305L16.92 2H19C19.5523 2 20 2.44772 20 3V7C20 9.19905 18.2255 10.9836 16.0303 10.9999C15.5483 12.7807 14.4913 14.3691 13 15.5132L12.999 18H17C17.5523 18 18 18.4477 18 19C18 19.5523 17.5523 20 17 20H3C2.44772 20 2 19.5523 2 19C2 18.4477 2.44772 18 3 18H6.999L7 15.514L6.76695 15.3293C5.40307 14.2089 4.42745 12.6929 3.96903 10.9999C1.84215 10.9832 0.111258 9.30821 0.00515466 7.20485L0 7V3C0 2.48716 0.38604 2.06449 0.883379 2.00673L1 2H3.079L3.00345 1.08305C2.95487 0.500026 3.41496 0 4 0H16ZM14.9132 2H5.0868L5.69712 9.32386C5.86096 11.2899 6.9132 13.0736 8.5547 14.1679C8.8329 14.3534 9 14.6656 9 15V18H11V15C11 14.6724 11.1605 14.3655 11.4296 14.1786L11.6474 14.0276C13.1753 12.923 14.1461 11.2051 14.3029 9.32386L14.9132 2ZM3.246 4H2V7C2 7.98906 2.71794 8.81043 3.66111 8.97141L3.246 4ZM18 7V4H16.753L16.3389 8.97141C17.2821 8.81043 18 7.98906 18 7Z" fill="#475569"/>
</svg>
