<svg width="16" height="20" viewBox="0 0 16 20" fill="none" xmlns="http://www.w3.org/2000/svg">
<path fill-rule="evenodd" clip-rule="evenodd" d="M10 0C10.2652 0 10.5196 0.105357 10.7071 0.292893L15.7071 5.29289C15.8946 5.48043 16 5.73478 16 6V17C16 18.6569 14.6569 20 13 20H3C1.34315 20 0 18.6569 0 17V3C0 1.34315 1.34315 0 3 0H10ZM7.999 2H3C2.44772 2 2 2.44772 2 3V17C2 17.5523 2.44772 18 3 18H13C13.5523 18 14 17.5523 14 17V8H9C8.48716 8 8.06449 7.61396 8.00673 7.11662L8 7L7.999 2ZM13.586 6L9.999 2.414L10 6H13.586Z" fill="#475569"/>
</svg>
