<svg width="20" height="20" viewBox="0 0 20 20" fill="none" xmlns="http://www.w3.org/2000/svg">
<path fill-rule="evenodd" clip-rule="evenodd" d="M13 0C14.6569 0 16 1.34315 16 3V17C16 18.6569 14.6569 20 13 20H7C5.34315 20 4 18.6569 4 17V3C4 1.34315 5.34315 0 7 0H13ZM1 0C1.55228 0 2 0.447715 2 1V19C2 19.5523 1.55228 20 1 20C0.447715 20 0 19.5523 0 19V1C0 0.447715 0.447715 0 1 0ZM19 0C19.5523 0 20 0.447715 20 1V19C20 19.5523 19.5523 20 19 20C18.4477 20 18 19.5523 18 19V1C18 0.447715 18.4477 0 19 0ZM13 2H7C6.44772 2 6 2.44772 6 3V17C6 17.5523 6.44772 18 7 18H13C13.5523 18 14 17.5523 14 17V3C14 2.44772 13.5523 2 13 2Z" fill="#475569"/>
</svg>
